(supertux-level
  (version 3)
  (name (_ "Nolok's Airships"))
  (author "Convival, Vaesea")
  (license "CC-BY-SA 4.0 International")
  (allow-item-pocket "inherit")
  (icon "")
  (icon-locked "")
  (statistics
    (enable-coins #t)
    (enable-secrets #f)
  )
  (sector
    (name "main")
    (init-script "Camera.start_moving();")
    (ambient-light
      (color 0.7 0.7 0.7)
    )
    (background
      (name "Panorama")
      (color 1 1 1)
      (alignment "top")
      (speed 0)
      (fill #t)
      (image-top "images/background/misc/transparent_up.png")
      (image "/images/background/misc/clouds_storm.png")
      (image-bottom "images/background/misc/transparent_up.png")
      (z-pos -350)
    )
    (background
      (color 1 1 1)
      (scroll-speed-x -50)
      (speed 1.25)
      (image-top "/images/background/misc/fog.png")
      (image "/images/background/misc/fog.png")
      (image-bottom "/images/background/misc/fog.png")
      (z-pos 300)
    )
    (background
      (color 0.5 0.5 0.5)
      (alignment "bottom")
      (scroll-speed-x -10)
      (speed 1.5)
      (speed-y 0)
      (image-top "/images/background/misc/arcticskies3.png")
      (image "/images/background/misc/arcticskies3.png")
      (image-bottom "/images/background/misc/arcticskies3.png")
      (z-pos 301)
    )
    (background
      (color 0.5 0.5 0.5)
      (scroll-speed-x -25)
      (speed 1.6)
      (image-top "/images/background/misc/light_clouds.png")
      (image "/images/background/misc/light_clouds.png")
      (image-bottom "/images/background/misc/light_clouds.png")
      (z-pos 302)
    )
    (bouncingsnowball
      (z-pos 50)
      (x 7168)
      (y 352)
      (glinting #f)
    )
    (camera
      (name "Camera")
      (mode "autoscroll")
      (path-ref "gen177901702498355643550240")
      (handle
        (scale_x 0)
        (scale_y 0)
        (offset_x 0)
        (offset_y 0)
      )
    )
    (candle
      (z-pos -99)
      (x 800)
      (y 256)
    )
    (candle
      (z-pos -99)
      (x 832)
      (y 256)
    )
    (candle
      (z-pos -99)
      (x 448)
      (y 256)
    )
    (candle
      (z-pos -99)
      (x 1824)
      (y 480)
    )
    (candle
      (z-pos -99)
      (x 1792)
      (y 480)
    )
    (candle
      (z-pos -99)
      (x 416)
      (y 256)
    )
    (crusher
      (z-pos 50)
      (x 5824)
      (y 32)
    )
    (crusher
      (z-pos 50)
      (x 6272)
      (y 32)
    )
    (crusher
      (z-pos 50)
      (x 8800)
      (y 96)
    )
    (crusher
      (z-pos 50)
      (x 4352)
      (y 352)
    )
    (crusher
      (z-pos 50)
      (x 4800)
      (y 352)
    )
    (dispenser
      (z-pos -1)
      (cycle 2.5)
      (objects
        (skydive
          (z-pos 50)
        )
      )
      (x 608)
      (y 448)
    )
    (dispenser
      (z-pos -1)
      (cycle 2.5)
      (objects
        (skydive
          (z-pos 50)
        )
      )
      (x 4352)
      (y 672)
    )
    (dispenser
      (z-pos -1)
      (cycle 2.5)
      (objects
        (skydive
          (z-pos 50)
        )
      )
      (x 4800)
      (y 672)
    )
    (dispenser
      (z-pos -1)
      (cycle 2.5)
      (objects
        (skydive
          (z-pos 50)
        )
      )
      (x 5600)
      (y 544)
    )
    (dispenser
      (z-pos -1)
      (cycle 2.5)
      (objects
        (skydive
          (z-pos 50)
        )
      )
      (x 6048)
      (y 544)
    )
    (dispenser
      (z-pos -1)
      (cycle 2.5)
      (objects
        (skydive
          (z-pos 50)
        )
      )
      (x 6496)
      (y 544)
    )
    (dispenser
      (z-pos -1)
      (cycle 2.5)
      (objects
        (skydive
          (z-pos 50)
        )
      )
      (x 6944)
      (y 544)
    )
    (dispenser
      (z-pos -1)
      (cycle 2.5)
      (objects
        (skydive
          (z-pos 50)
        )
      )
      (x 9152)
      (y 160)
    )
    (dispenser
      (z-pos -1)
      (cycle 2.5)
      (objects
        (skydive
          (z-pos 50)
        )
      )
      (x 8448)
      (y 160)
    )
    (dispenser
      (z-pos 55)
      (cycle 5)
      (type "cannon")
      (objects
        (kamikazesnowball
          (z-pos 50)
          (glinting #f)
        )
      )
      (direction "left")
      (x 9088)
      (y 448)
    )
    (dispenser
      (z-pos -1)
      (cycle 2.5)
      (objects
        (skydive
          (z-pos 50)
        )
      )
      (x 8704)
      (y 160)
    )
    (dispenser
      (z-pos -1)
      (cycle 2.5)
      (objects
        (skydive
          (z-pos 50)
        )
      )
      (x 8896)
      (y 160)
    )
    (dispenser
      (z-pos -1)
      (cycle 2.5)
      (objects
        (skydive
          (z-pos 50)
        )
      )
      (x 8800)
      (y 672)
    )
    (dispenser
      (z-pos 55)
      (cycle 5)
      (type "cannon")
      (objects
        (kamikazesnowball
          (z-pos 50)
          (glinting #f)
        )
      )
      (direction "left")
      (x 7488)
      (y 320)
    )
    (dispenser
      (z-pos 55)
      (cycle 5)
      (type "cannon")
      (objects
        (kamikazesnowball
          (z-pos 50)
          (glinting #f)
        )
      )
      (direction "left")
      (x 5024)
      (y 192)
    )
    (fallblock
      (sprite "/images/objects/platforms/small.sprite")
      (z-pos 50)
      (x 3488)
      (y 416)
    )
    (fallblock
      (sprite "/images/objects/platforms/small.sprite")
      (z-pos 50)
      (x 3616)
      (y 416)
    )
    (fallblock
      (sprite "/images/objects/platforms/small.sprite")
      (z-pos 50)
      (x 3744)
      (y 416)
    )
    (fallblock
      (sprite "/images/objects/platforms/small.sprite")
      (z-pos 50)
      (x 3872)
      (y 416)
    )
    (fallblock
      (sprite "/images/objects/platforms/small.sprite")
      (z-pos 50)
      (x 3808)
      (y 416)
    )
    (fallblock
      (sprite "/images/objects/platforms/small.sprite")
      (z-pos 50)
      (x 3680)
      (y 416)
    )
    (fallblock
      (sprite "/images/objects/platforms/small.sprite")
      (z-pos 50)
      (x 3552)
      (y 416)
    )
    (gradient
      (top_color 0.3 0.3 0.3)
      (bottom_color 0.7 0.7 0.7)
      (z-pos -400)
    )
    (jumpy
      (z-pos 50)
      (x 4592)
      (y 192)
      (glinting #f)
    )
    (jumpy
      (z-pos 50)
      (x 5424)
      (y 320)
      (glinting #f)
    )
    (jumpy
      (z-pos 50)
      (x 8336)
      (y 320)
      (glinting #f)
    )
    (leveltime
      (time 149)
    )
    (mrbomb
      (z-pos 50)
      (x 1888)
      (y 480)
      (glinting #f)
    )
    (music
      (name "Music_Object")
      (file "/music/misc/darkness_march.music")
    )
    (particles-clouds
      (fog_opacity 35)
    )
    (particles-rain
      (intensity 2)
    )
    (path
      (name "gen177901672398355643748944")
      (path
        (mode "oneshot")
        (adapt_speed #f)
        (node
          (x 480)
          (y 416)
        )
      )
    )
    (path
      (name "gen177901672998355677737536")
      (path
        (mode "oneshot")
        (adapt_speed #f)
        (node
          (x 672)
          (y 416)
        )
      )
    )
    (path
      (name "gen177901702498355643550240")
      (path
        (mode "oneshot")
        (adapt_speed #t)
        (node
          (x 0)
          (y 0)
          (time 56)
        )
        (node
          (x 11200)
          (y 0)
        )
      )
    )
    (path
      (name "gen177901721698355643455312")
      (path
        (mode "oneshot")
        (adapt_speed #f)
        (node
          (x 864)
          (y 288)
        )
      )
    )
    (path
      (name "gen177901721898355648625360")
      (path
        (mode "oneshot")
        (adapt_speed #f)
        (node
          (x 992)
          (y 320)
        )
      )
    )
    (path
      (name "gen177901721998355648363712")
      (path
        (mode "oneshot")
        (adapt_speed #f)
        (node
          (x 1120)
          (y 352)
        )
      )
    )
    (path
      (name "gen177901721998355648474960")
      (path
        (mode "oneshot")
        (adapt_speed #f)
        (node
          (x 1248)
          (y 384)
        )
      )
    )
    (path
      (name "gen177901738098355677736224")
      (path
        (mode "oneshot")
        (adapt_speed #f)
        (node
          (x 1856)
          (y 704)
        )
      )
    )
    (path
      (name "gen177901738398355648673664")
      (path
        (mode "oneshot")
        (adapt_speed #f)
        (node
          (x 1664)
          (y 704)
        )
      )
    )
    (path
      (name "gen177901743998355648312496")
      (path
        (mode "oneshot")
        (adapt_speed #f)
        (node
          (x 2432)
          (y 672)
        )
      )
    )
    (path
      (name "gen177901744098355648279664")
      (path
        (mode "oneshot")
        (adapt_speed #f)
        (node
          (x 2560)
          (y 672)
        )
      )
    )
    (path
      (name "gen177901744198355648165952")
      (path
        (mode "oneshot")
        (adapt_speed #f)
        (node
          (x 2688)
          (y 672)
        )
      )
    )
    (path
      (name "gen177901744298355642985520")
      (path
        (mode "oneshot")
        (adapt_speed #f)
        (node
          (x 2816)
          (y 672)
        )
      )
    )
    (path
      (name "gen177901744398355647373696")
      (path
        (mode "oneshot")
        (adapt_speed #f)
        (node
          (x 2944)
          (y 672)
        )
      )
    )
    (path
      (name "gen177901744398355649929232")
      (path
        (mode "oneshot")
        (adapt_speed #f)
        (node
          (x 3072)
          (y 672)
        )
      )
    )
    (path
      (name "gen177902101198355678772880")
      (path
        (mode "oneshot")
        (adapt_speed #f)
        (node
          (x 4224)
          (y 640)
        )
      )
    )
    (path
      (name "gen177902101398355649010352")
      (path
        (mode "oneshot")
        (adapt_speed #f)
        (node
          (x 4416)
          (y 640)
        )
      )
    )
    (path
      (name "gen177902101498355682942512")
      (path
        (mode "oneshot")
        (adapt_speed #f)
        (node
          (x 4672)
          (y 640)
        )
      )
    )
    (path
      (name "gen177902101698355678835664")
      (path
        (mode "oneshot")
        (adapt_speed #f)
        (node
          (x 4864)
          (y 640)
        )
      )
    )
    (path
      (name "gen177902101798355648931520")
      (path
        (mode "oneshot")
        (adapt_speed #f)
        (node
          (x 5472)
          (y 512)
        )
      )
    )
    (path
      (name "gen177902102698355678672384")
      (path
        (mode "oneshot")
        (adapt_speed #f)
        (node
          (x 5664)
          (y 512)
        )
      )
    )
    (path
      (name "gen177902102798355642700480")
      (path
        (mode "oneshot")
        (adapt_speed #f)
        (node
          (x 5920)
          (y 512)
        )
      )
    )
    (path
      (name "gen177902102998355678943264")
      (path
        (mode "oneshot")
        (adapt_speed #f)
        (node
          (x 6112)
          (y 512)
        )
      )
    )
    (path
      (name "gen177902103098355680580752")
      (path
        (mode "oneshot")
        (adapt_speed #f)
        (node
          (x 6368)
          (y 512)
        )
      )
    )
    (path
      (name "gen177902103198355680850000")
      (path
        (mode "oneshot")
        (adapt_speed #f)
        (node
          (x 6560)
          (y 512)
        )
      )
    )
    (path
      (name "gen177902103298355648398816")
      (path
        (mode "oneshot")
        (adapt_speed #f)
        (node
          (x 6816)
          (y 512)
        )
      )
    )
    (path
      (name "gen177902103398355680717664")
      (path
        (mode "oneshot")
        (adapt_speed #f)
        (node
          (x 7008)
          (y 512)
        )
      )
    )
    (path
      (name "gen177902207198355646932800")
      (path
        (mode "oneshot")
        (adapt_speed #f)
        (node
          (x 8640)
          (y 640)
        )
      )
    )
    (path
      (name "gen177902207398355679515072")
      (path
        (mode "oneshot")
        (adapt_speed #f)
        (node
          (x 8896)
          (y 640)
        )
      )
    )
    (platform
      (z-pos -100)
      (handle
        (scale_x 0)
        (scale_y 0)
        (offset_x 0)
        (offset_y 0)
      )
      (running #f)
      (path-ref "gen177901672398355643748944")
    )
    (platform
      (z-pos -100)
      (handle
        (scale_x 0)
        (scale_y 0)
        (offset_x 0)
        (offset_y 0)
      )
      (running #f)
      (path-ref "gen177901672998355677737536")
    )
    (platform
      (z-pos 50)
      (handle
        (scale_x 0)
        (scale_y 0)
        (offset_x 0)
        (offset_y 0)
      )
      (running #f)
      (path-ref "gen177901721698355643455312")
    )
    (platform
      (z-pos 50)
      (handle
        (scale_x 0)
        (scale_y 0)
        (offset_x 0)
        (offset_y 0)
      )
      (running #f)
      (path-ref "gen177901721898355648625360")
    )
    (platform
      (z-pos 50)
      (handle
        (scale_x 0)
        (scale_y 0)
        (offset_x 0)
        (offset_y 0)
      )
      (running #f)
      (path-ref "gen177901721998355648363712")
    )
    (platform
      (z-pos 50)
      (handle
        (scale_x 0)
        (scale_y 0)
        (offset_x 0)
        (offset_y 0)
      )
      (running #f)
      (path-ref "gen177901721998355648474960")
    )
    (platform
      (z-pos -100)
      (handle
        (scale_x 0)
        (scale_y 0)
        (offset_x 0)
        (offset_y 0)
      )
      (running #f)
      (path-ref "gen177901738098355677736224")
    )
    (platform
      (z-pos -100)
      (handle
        (scale_x 0)
        (scale_y 0)
        (offset_x 0)
        (offset_y 0)
      )
      (running #f)
      (path-ref "gen177901738398355648673664")
    )
    (platform
      (z-pos 50)
      (handle
        (scale_x 0)
        (scale_y 0)
        (offset_x 0)
        (offset_y 0)
      )
      (running #f)
      (path-ref "gen177901743998355648312496")
    )
    (platform
      (z-pos 50)
      (handle
        (scale_x 0)
        (scale_y 0)
        (offset_x 0)
        (offset_y 0)
      )
      (running #f)
      (path-ref "gen177901744098355648279664")
    )
    (platform
      (z-pos 50)
      (handle
        (scale_x 0)
        (scale_y 0)
        (offset_x 0)
        (offset_y 0)
      )
      (running #f)
      (path-ref "gen177901744198355648165952")
    )
    (platform
      (z-pos 50)
      (handle
        (scale_x 0)
        (scale_y 0)
        (offset_x 0)
        (offset_y 0)
      )
      (running #f)
      (path-ref "gen177901744298355642985520")
    )
    (platform
      (z-pos 50)
      (handle
        (scale_x 0)
        (scale_y 0)
        (offset_x 0)
        (offset_y 0)
      )
      (running #f)
      (path-ref "gen177901744398355647373696")
    )
    (platform
      (z-pos 50)
      (handle
        (scale_x 0)
        (scale_y 0)
        (offset_x 0)
        (offset_y 0)
      )
      (running #f)
      (path-ref "gen177901744398355649929232")
    )
    (platform
      (z-pos -100)
      (handle
        (scale_x 0)
        (scale_y 0)
        (offset_x 0)
        (offset_y 0)
      )
      (running #f)
      (path-ref "gen177902101198355678772880")
    )
    (platform
      (z-pos -100)
      (handle
        (scale_x 0)
        (scale_y 0)
        (offset_x 0)
        (offset_y 0)
      )
      (running #f)
      (path-ref "gen177902101398355649010352")
    )
    (platform
      (z-pos -100)
      (handle
        (scale_x 0)
        (scale_y 0)
        (offset_x 0)
        (offset_y 0)
      )
      (running #f)
      (path-ref "gen177902101498355682942512")
    )
    (platform
      (z-pos -100)
      (handle
        (scale_x 0)
        (scale_y 0)
        (offset_x 0)
        (offset_y 0)
      )
      (running #f)
      (path-ref "gen177902101698355678835664")
    )
    (platform
      (z-pos -100)
      (handle
        (scale_x 0)
        (scale_y 0)
        (offset_x 0)
        (offset_y 0)
      )
      (running #f)
      (path-ref "gen177902101798355648931520")
    )
    (platform
      (z-pos -100)
      (handle
        (scale_x 0)
        (scale_y 0)
        (offset_x 0)
        (offset_y 0)
      )
      (running #f)
      (path-ref "gen177902102698355678672384")
    )
    (platform
      (z-pos -100)
      (handle
        (scale_x 0)
        (scale_y 0)
        (offset_x 0)
        (offset_y 0)
      )
      (running #f)
      (path-ref "gen177902102798355642700480")
    )
    (platform
      (z-pos -100)
      (handle
        (scale_x 0)
        (scale_y 0)
        (offset_x 0)
        (offset_y 0)
      )
      (running #f)
      (path-ref "gen177902102998355678943264")
    )
    (platform
      (z-pos -100)
      (handle
        (scale_x 0)
        (scale_y 0)
        (offset_x 0)
        (offset_y 0)
      )
      (running #f)
      (path-ref "gen177902103098355680580752")
    )
    (platform
      (z-pos -100)
      (handle
        (scale_x 0)
        (scale_y 0)
        (offset_x 0)
        (offset_y 0)
      )
      (running #f)
      (path-ref "gen177902103198355680850000")
    )
    (platform
      (z-pos -100)
      (handle
        (scale_x 0)
        (scale_y 0)
        (offset_x 0)
        (offset_y 0)
      )
      (running #f)
      (path-ref "gen177902103298355648398816")
    )
    (platform
      (z-pos -100)
      (handle
        (scale_x 0)
        (scale_y 0)
        (offset_x 0)
        (offset_y 0)
      )
      (running #f)
      (path-ref "gen177902103398355680717664")
    )
    (platform
      (z-pos -100)
      (handle
        (scale_x 0)
        (scale_y 0)
        (offset_x 0)
        (offset_y 0)
      )
      (running #f)
      (path-ref "gen177902207198355646932800")
    )
    (platform
      (z-pos -100)
      (handle
        (scale_x 0)
        (scale_y 0)
        (offset_x 0)
        (offset_y 0)
      )
      (running #f)
      (path-ref "gen177902207398355679515072")
    )
    (powerup
      (version 2)
      (type "fire")
      (z-pos 50)
      (x 1808)
      (y 608)
    )
    (powerup
      (version 2)
      (type "oneup")
      (z-pos 50)
      (disable-physics #t)
      (x 3136)
      (y 608)
    )
    (scripttrigger
      (oneshot #t)
      (script "wind1.stop();
wind2.stop();")
      (button #f)
      (width 32)
      (height 192)
      (x 448)
      (y 96)
    )
    (sequencetrigger
      (sequence "endsequence")
      (width 32)
      (height 512)
      (x 9536)
      (y -128)
    )
    (snowman
      (z-pos 50)
      (x 3264)
      (y 384)
      (glinting #f)
    )
    (sound-object
      (sample "/sounds/rain.wav")
      (volume 1)
    )
    (spawnpoint
      (name "main")
      (x 128)
      (y 640)
    )
    (spiky
      (z-pos 50)
      (x 4448)
      (y 320)
      (glinting #f)
    )
    (spiky
      (z-pos 50)
      (x 4896)
      (y 320)
      (glinting #f)
    )
    (stalactite
      (glinting #f)
      (z-pos -1)
      (x 5920)
      (y 96)
    )
    (stalactite
      (glinting #f)
      (z-pos -1)
      (x 6240)
      (y 96)
    )
    (stalactite
      (glinting #f)
      (z-pos -1)
      (x 4896)
      (y 416)
    )
    (stalactite
      (glinting #f)
      (z-pos -1)
      (x 4576)
      (y 352)
    )
    (stalactite
      (glinting #f)
      (z-pos -1)
      (x 4288)
      (y 416)
    )
    (stalactite
      (glinting #f)
      (z-pos -1)
      (x 3008)
      (y 480)
    )
    (thunderstorm
    )
    (tilemap
      (solid #f)
      (z-pos -100)
      (name "MidGround_Tiles")
      (width 350)
      (height 23)
      (tiles -2047 0 130 -349 0 129 -349 0 129 -349 0 129 -234 0 1809 1812 -12 0 1809 1812 -12 0 1809 1812 -85 0 129 -3 0 1809 1812 0 1809 1812 0 1809 1812 0 1809 1812 -220 0 1810 1813 -12 0 1810 1813 -12 0 1810 1813 -85 0 129 -3 0 1810 1813 0 1810 1813 0 1810 1813 0 1810 1813 -220 0 1811 1814 -12 0 1811 1814 -12 0 1811 1814 -85 0 129 -3 0 1811 1814 0 1811 1814 0 1811 1814 0 1811 1814 -63 0 2808 2810 2812 2814 -349 0 2816 2814 -349 0 2816 2814 -349 0 2816 2808 2810 2812 2808 2810 2812 2808 2810 2812 2808 2810 2812 2808 2810 -577 0 1809 1812 -4 0 1809 1812 -342 0 1810 1813 -4 0 1810 1813 -342 0 1811 1814 -4 0 1811 1814 -1470 0)
    )
    (tilemap
      (solid #f)
      (tint 0.5 0.5 0.5)
      (z-pos -150)
      (name "BackGround_Tiles")
      (width 350)
      (height 23)
      (tiles -262 0 -28 212 -321 0 211 -28 212 211 -319 0 211 -30 212 211 -318 0 -32 212 -318 0 -32 212 -318 0 -32 212 -318 0 -32 212 -318 0 -32 212 -318 0 -32 212 -318 0 -32 212 -318 0 -32 212 -318 0 -32 212 -318 0 -32 212 -318 0 -32 212 -318 0 213 -30 212 213 -319 0 213 -28 212 213 -321 0 213 -26 212 213 -323 0 213 -24 212 213 -325 0 -3 213 -19 212 -2 213 -329 0 -2 213 -14 212 -3 213 -333 0 -14 213 -767 0)
    )
    (tilemap
      (solid #t)
      (z-pos 0)
      (name "Main_Tiles")
      (width 350)
      (height 23)
      (tiles -180 0 27 -4 28 29 -8 0 27 -4 28 29 -62 0 27 -26 28 29 -240 0 27 29 -2 0 27 29 -8 0 27 29 -2 0 27 29 -61 0 27 -28 28 29 -239 0 27 29 -2 0 27 29 -8 0 27 29 -2 0 27 29 -60 0 27 -30 28 29 -318 0 27 -13 28 29 -2 0 27 -13 28 29 -318 0 27 -13 28 29 -2 0 27 -13 28 29 -1238 0 27 29 -10 0 27 -2 28 29 -10 0 27 29 -205 0 27 29 -10 0 27 29 -103 0 27 28 29 -8 0 27 -4 28 29 -8 0 27 28 29 -205 0 27 28 29 -8 0 27 28 29 -103 0 27 -2 28 29 -6 0 27 -6 28 29 -6 0 27 -2 28 29 -205 0 27 -2 28 29 -6 0 27 -2 28 29 -104 0 27 -3 28 29 -2 0 27 -3 28 29 -2 0 27 -3 28 29 -2 0 27 -3 28 29 -25 0 -2 44 -12 0 -2 44 -166 0 27 -10 28 29 -17 0 27 28 29 -23 0 27 28 29 -60 0 27 -2 28 29 -2 0 27 -2 28 29 -4 0 27 -2 28 29 -2 0 27 -2 28 29 -13 0 27 29 -10 0 27 -2 28 29 -10 0 27 -2 28 29 -10 0 27 -2 28 29 -3 0 -2 77 -5 0 27 -11 28 29 -24 0 27 29 -28 0 27 -59 28 -15 0 27 -8 28 29 -18 0 27 -2 28 29 -21 0 27 -2 28 29 -97 0 27 28 29 -8 0 27 -4 28 29 -8 0 27 -4 28 29 -8 0 27 -4 28 29 0 -3 77 0 77 104 0 27 28 29 -16 0 27 29 -6 0 27 29 -9 0 27 -2 28 29 -24 0 27 -61 28 -44 0 27 -2 28 29 -19 0 27 -2 28 29 -21 0 27 -10 28 29 -65 0 27 -2 28 29 -6 2178 27 -6 28 29 -6 2178 27 -6 28 29 -6 2178 27 -6 28 29 77 104 -4 77 27 -2 28 29 -20 0 27 29 -6 0 27 29 -5 0 27 -4 28 29 -20 0 27 -4 28 29 -102 0 27 -3 28 29 -17 0 27 -6 28 29 -69 0 -2 44 -25 0 27 -10 28 29 -2 0 27 -10 28 29 -2 0 27 -10 28 29 -2 0 27 -10 28 29 -37 0 27 -4 28 29 -18 0 27 -4 28 29 -104 0 27 -3 28 29 -3 0 27 -6 28 29 -3 0 27 -4 28 29 -60 0 27 29 -10 0 27 -2 28 29 -10 0 27 29 -13 0 27 -8 28 29 -4 0 27 -8 28 29 -4 0 27 -8 28 29 -4 0 27 -8 28 29 -39 0 27 -4 28 29 -16 0 27 -4 28 29 -106 0 27 -3 28 29 -3 0 27 -4 28 29 -3 0 27 -4 28 29 -20 0 27 29 -39 0 27 28 29 -8 0 27 -4 28 29 -8 0 27 28 29 -105 0 27 -4 28 29 -14 0 27 -4 28 29 -108 0 27 -2 28 29 -12 0 27 -2 28 29 -63 0 27 -2 28 29 -6 0 27 -6 28 29 -6 0 27 -2 28 29 -106 0 27 -5 28 29 -10 0 27 -5 28 29 -110 0 27 -2 28 29 -10 0 27 -2 28 29 -8 0 27 29 -55 0 27 -10 28 29 -2 0 27 -10 28 29 -109 0 27 -18 28 29 -113 0 27 -14 28 29 -67 0 27 -8 28 29 -4 0 27 -8 28 29 -113 0 27 -12 28 29 -117 0 27 -12 28 29 -338 0 27 -8 28 29 -288 0)
    )
    (tilemap
      (solid #f)
      (z-pos 100)
      (width 350)
      (height 23)
      (tiles -2049 0 130 -349 0 129 -349 0 129 -349 0 129 -349 0 129 -349 0 129 -349 0 129 -70 0 3060 -349 0 3060 -349 0 3060 -349 0 3060 -243 0 3171 3172 -20 0 3171 3172 -82 0 3060 -243 0 3177 3178 -20 0 3177 3178 -82 0 3060 -349 0 3060 -349 0 3061 -1379 0)
    )
    (torch
      (z-pos 0)
      (x 1600)
      (y 448)
    )
    (torch
      (sprite "/images/objects/torch/torch2.sprite")
      (z-pos 0)
      (x 2016)
      (y 448)
    )
    (unstable_tile
      (z-pos 0)
      (x 5152)
      (y 416)
    )
    (unstable_tile
      (z-pos 0)
      (x 5184)
      (y 416)
    )
    (unstable_tile
      (z-pos 0)
      (x 5216)
      (y 416)
    )
    (unstable_tile
      (z-pos 0)
      (x 5248)
      (y 416)
    )
    (unstable_tile
      (z-pos 0)
      (x 5280)
      (y 416)
    )
    (wind
      (z-pos -99)
      (speed-x 300)
      (speed-y -600)
      (acceleration 100)
      (affects-player #t)
      (particles-enabled #f)
      (width 192)
      (height 640)
      (name "wind1")
      (x 96)
      (y 96)
    )
    (wind
      (z-pos -99)
      (speed-x 300)
      (speed-y 1)
      (acceleration 100)
      (affects-player #t)
      (particles-enabled #f)
      (width 128)
      (height 192)
      (name "wind2")
      (x 288)
      (y 96)
    )
  )
)
